<svg width="206" height="55" viewBox="0 0 206 55" fill="none" xmlns="http://www.w3.org/2000/svg">
<path d="M40.8936 26.6923C39.4144 24.1852 37.3168 22.087 34.8045 20.5922C34.8803 19.9195 34.9182 19.2358 34.9182 18.5522C34.9182 18.2367 34.9074 17.9048 34.8858 17.541C34.393 8.6546 27.4214 1.55757 18.6684 1.03109C11.0763 0.578251 4.16095 5.10773 1.46456 12.3026L1.43316 12.4037C1.03249 13.6523 1 14.9734 1 14.9855L1.01408 35.4325L9.41513 35.4259V39.2937C9.41513 39.3058 9.44762 40.6324 9.85045 41.8832L9.87969 41.9767C11.1402 45.3345 13.3384 48.1768 16.2362 50.1948C19.1232 52.2062 22.5138 53.269 26.0407 53.269C26.3894 53.269 26.7446 53.2581 27.0944 53.2361C35.8474 52.703 42.8147 45.6005 43.3009 36.7097C43.3193 36.3239 43.329 36.0051 43.329 35.704C43.329 32.5088 42.4865 29.3917 40.8936 26.6923ZM14.3488 30.4139V23.8543H28.84C27.5633 26.6516 25.3174 28.8499 22.4152 30.1138C22.3968 30.1215 22.3611 30.1358 22.3448 30.1413C21.9983 30.2699 21.4287 30.415 20.9674 30.4062C20.9046 30.4051 20.8483 30.4073 20.8125 30.4095L14.3488 30.4139ZM14.3488 35.4248L21.5088 35.4182H21.5294C21.5922 35.4182 21.6583 35.4182 21.7341 35.4127C22.2831 35.3764 22.831 35.2742 23.3595 35.1094C23.3941 35.0984 23.4948 35.0643 23.4948 35.0643L23.5176 35.0566C28.0029 33.3771 31.5689 29.9929 33.4477 25.68C36.7862 28.1959 38.6141 32.1428 38.3759 36.436C38.0261 42.7878 33.0492 47.8614 26.7922 48.2384C26.5735 48.2527 26.3255 48.2603 26.0342 48.2603C21.5175 48.2603 17.5 45.8917 15.2876 41.925C14.6736 40.8204 14.3488 39.5366 14.3488 38.2155V35.4248ZM17.6245 6.00681C17.9147 6.00681 18.153 6.01341 18.3782 6.0288C24.6319 6.4025 29.6132 11.4716 29.9651 17.8202C29.9835 18.1697 29.99 18.5126 29.9824 18.8468C29.9554 18.8468 29.9294 18.8468 29.9034 18.8468H9.41513V30.4183L5.94339 30.4205L5.93472 16.0594C5.93472 14.736 6.25959 13.4534 6.87467 12.3498C9.08268 8.38092 13.098 6.01011 17.6245 6.00681Z" fill="#FFC44A" stroke="#FFC44A" stroke-width="1.79611"/>
<path d="M66.6801 20.1721C69.1036 20.1721 71.132 21.1072 72.7653 22.9776C74.3986 24.8216 75.2152 27.232 75.2152 30.2087C75.2152 33.1855 74.3986 35.6091 72.7653 37.4794C71.132 39.3234 69.1036 40.2454 66.6801 40.2454C65.4156 40.2454 64.2697 39.9952 63.2423 39.4946C62.2149 38.9678 61.4642 38.2829 60.99 37.4399H60.8319L60.6344 39.7712H55.5765V12.1111H61.1085V22.8195H61.2271C61.7012 22.0293 62.4257 21.397 63.4004 20.9228C64.3751 20.4223 65.4683 20.1721 66.6801 20.1721ZM65.2575 35.2666C66.522 35.2666 67.5626 34.8188 68.3792 33.9231C69.1958 33.0011 69.6041 31.763 69.6041 30.2087C69.6041 28.6545 69.1958 27.4296 68.3792 26.5339C67.5626 25.6119 66.522 25.1509 65.2575 25.1509C64.0721 25.1509 63.0843 25.5329 62.294 26.2968C61.5037 27.0344 61.1085 27.9564 61.1085 29.0628V31.3547C61.1085 32.4611 61.5037 33.3962 62.294 34.1602C63.0843 34.8978 64.0721 35.2666 65.2575 35.2666ZM91.125 20.6462H96.657V39.7712H91.6387L91.4016 37.4399H91.2831C90.7035 38.3092 89.8869 38.9941 88.8332 39.4946C87.7794 39.9952 86.6467 40.2454 85.4349 40.2454C83.4855 40.2454 81.9313 39.5868 80.7722 38.2697C79.6395 36.9262 79.0731 35.0163 79.0731 32.5401V20.6462H84.6051V30.999C84.6051 33.765 85.6061 35.148 87.6082 35.148C88.7146 35.148 89.5708 34.7924 90.1767 34.0812C90.8089 33.3436 91.125 32.2767 91.125 30.8805V20.6462ZM113.742 20.6462H119.67L109.356 48.6225H103.429L106.59 39.9688L99.4777 20.6462H105.484L109.514 32.9748H109.672L113.742 20.6462ZM133.215 16.5763C132.162 16.5763 131.384 16.8002 130.884 17.248C130.41 17.6958 130.173 18.4071 130.173 19.3818V20.6462H134.756V25.4275H130.173V39.7712H124.641V25.4275H121.559V20.6462H124.641V19.3818C124.641 16.8265 125.26 14.9035 126.498 13.6127C127.762 12.2955 129.567 11.637 131.911 11.637C132.965 11.637 133.927 11.7687 134.796 12.0321V16.7343C134.164 16.6289 133.637 16.5763 133.215 16.5763ZM153.545 37.4399C151.675 39.3102 149.278 40.2454 146.354 40.2454C143.429 40.2454 141.032 39.3102 139.162 37.4399C137.292 35.5695 136.356 33.1592 136.356 30.2087C136.356 27.2583 137.292 24.848 139.162 22.9776C141.032 21.1072 143.429 20.1721 146.354 20.1721C149.278 20.1721 151.675 21.1072 153.545 22.9776C155.416 24.848 156.351 27.2583 156.351 30.2087C156.351 33.1592 155.416 35.5695 153.545 37.4399ZM143.192 33.9231C144.009 34.8451 145.063 35.3061 146.354 35.3061C147.644 35.3061 148.698 34.8451 149.515 33.9231C150.331 33.0011 150.74 31.763 150.74 30.2087C150.74 28.6545 150.331 27.4296 149.515 26.5339C148.724 25.6119 147.671 25.1509 146.354 25.1509C145.036 25.1509 143.969 25.6119 143.153 26.5339C142.363 27.4296 141.967 28.6545 141.967 30.2087C141.967 31.763 142.376 33.0011 143.192 33.9231ZM176.467 37.4399C174.596 39.3102 172.199 40.2454 169.275 40.2454C166.351 40.2454 163.954 39.3102 162.083 37.4399C160.213 35.5695 159.278 33.1592 159.278 30.2087C159.278 27.2583 160.213 24.848 162.083 22.9776C163.954 21.1072 166.351 20.1721 169.275 20.1721C172.199 20.1721 174.596 21.1072 176.467 22.9776C178.337 24.848 179.272 27.2583 179.272 30.2087C179.272 33.1592 178.337 35.5695 176.467 37.4399ZM166.114 33.9231C166.93 34.8451 167.984 35.3061 169.275 35.3061C170.566 35.3061 171.62 34.8451 172.436 33.9231C173.253 33.0011 173.661 31.763 173.661 30.2087C173.661 28.6545 173.253 27.4296 172.436 26.5339C171.646 25.6119 170.592 25.1509 169.275 25.1509C167.958 25.1509 166.891 25.6119 166.074 26.5339C165.284 27.4296 164.889 28.6545 164.889 30.2087C164.889 31.763 165.297 33.0011 166.114 33.9231ZM196.385 12.1111H201.917V39.7712H196.859L196.622 37.4399H196.504C196.003 38.2829 195.239 38.9678 194.212 39.4946C193.184 39.9952 192.038 40.2454 190.774 40.2454C188.35 40.2454 186.322 39.3234 184.689 37.4794C183.055 35.6091 182.239 33.1855 182.239 30.2087C182.239 27.232 183.055 24.8216 184.689 22.9776C186.322 21.1072 188.35 20.1721 190.774 20.1721C192.012 20.1721 193.105 20.4223 194.054 20.9228C195.028 21.397 195.753 22.0293 196.227 22.8195H196.385V12.1111ZM196.385 31.3547V29.0628C196.385 27.9564 195.99 27.0344 195.2 26.2968C194.409 25.5329 193.408 25.1509 192.196 25.1509C190.932 25.1509 189.891 25.6119 189.075 26.5339C188.258 27.4296 187.85 28.6545 187.85 30.2087C187.85 31.763 188.258 33.0011 189.075 33.9231C189.891 34.8188 190.932 35.2666 192.196 35.2666C193.408 35.2666 194.409 34.8978 195.2 34.1602C195.99 33.3962 196.385 32.4611 196.385 31.3547Z" fill="#130F49"/>
</svg>
