<svg width="115" height="32" viewBox="0 0 115 32" fill="none" xmlns="http://www.w3.org/2000/svg">
<path d="M24.1754 15.5044C23.316 14.0891 22.0975 12.9045 20.638 12.0606C20.6821 11.6809 20.7041 11.2949 20.7041 10.909C20.7041 10.7309 20.6978 10.5435 20.6852 10.3381C20.399 5.32136 16.349 1.31477 11.2641 1.01755C6.8536 0.761904 2.83629 3.319 1.26988 7.38081L1.25163 7.4379C1.01887 8.14279 1 8.88863 1 8.89546L1.00818 20.4387L5.88859 20.435V22.6185C5.88859 22.6253 5.90746 23.3743 6.14148 24.0804L6.15847 24.1331C6.89072 26.0288 8.16775 27.6334 9.85118 28.7726C11.5283 29.9082 13.498 30.5082 15.5469 30.5082C15.7494 30.5082 15.9558 30.502 16.159 30.4896C21.2438 30.1886 25.2914 26.1789 25.5738 21.1597C25.5845 20.9419 25.5902 20.762 25.5902 20.5919C25.5902 18.7881 25.1007 17.0284 24.1754 15.5044ZM8.75469 17.6055V13.9023H17.1731C16.4314 15.4815 15.1267 16.7225 13.4407 17.4361C13.43 17.4404 13.4093 17.4485 13.3998 17.4516C13.1985 17.5242 12.8676 17.6061 12.5996 17.6011C12.5631 17.6005 12.5304 17.6017 12.5097 17.603L8.75469 17.6055ZM8.75469 20.4343L12.9142 20.4306H12.9261C12.9626 20.4306 13.001 20.4306 13.045 20.4275C13.364 20.407 13.6823 20.3493 13.9893 20.2562C14.0094 20.25 14.0679 20.2308 14.0679 20.2308L14.0811 20.2265C16.6868 19.2783 18.7583 17.3678 19.8498 14.933C21.7893 16.3533 22.8511 18.5815 22.7127 21.0052C22.5096 24.5911 19.6183 27.4553 15.9835 27.6682C15.8564 27.6762 15.7123 27.6806 15.5431 27.6806C12.9192 27.6806 10.5853 26.3434 9.3001 24.104C8.94341 23.4804 8.75469 22.7556 8.75469 22.0098V20.4343ZM10.6577 3.82657C10.8263 3.82657 10.9646 3.83029 11.0955 3.83898C14.7284 4.04995 17.6222 6.91171 17.8267 10.4957C17.8374 10.6931 17.8411 10.8867 17.8367 11.0753C17.821 11.0753 17.8059 11.0753 17.7908 11.0753H5.88859V17.6079L3.87176 17.6092L3.86672 9.50169C3.86672 8.7546 4.05545 8.03048 4.41277 7.40749C5.69546 5.16686 8.0281 3.82843 10.6577 3.82657Z" fill="#FCD561" stroke="#FCD561"/>
<path d="M37.5679 12.088C36.1599 12.088 35.0379 12.726 34.5319 13.562H34.4659V7.6H31.3859V23H34.2019L34.3119 21.702H34.3999C34.9279 22.648 36.1599 23.264 37.5679 23.264C40.2079 23.264 42.3199 21.064 42.3199 17.676C42.3199 14.288 40.2079 12.088 37.5679 12.088ZM36.7759 20.492C35.4559 20.492 34.4659 19.546 34.4659 18.314V17.038C34.4659 15.806 35.4559 14.86 36.7759 14.86C38.1619 14.86 39.1959 15.894 39.1959 17.676C39.1959 19.458 38.1619 20.492 36.7759 20.492ZM51.1779 12.352V18.05C51.1779 19.656 50.4079 20.426 49.2199 20.426C48.1639 20.426 47.5479 19.81 47.5479 18.116V12.352H44.4679V18.974C44.4679 21.79 45.8979 23.264 48.0099 23.264C49.3519 23.264 50.6059 22.67 51.2659 21.702H51.3319L51.4639 23H54.2579V12.352H51.1779ZM63.7703 12.352L61.5043 19.216H61.4163L59.1723 12.352H55.8283L59.7883 23.11L58.0283 27.928H61.3283L67.0703 12.352H63.7703ZM74.612 10.086C74.92 10.086 75.228 10.13 75.492 10.174V7.556C75.052 7.424 74.48 7.336 73.886 7.336C71.312 7.336 69.838 8.766 69.838 11.648V12.352H68.122V15.014H69.838V23H72.918V15.014H75.47V12.352H72.918V11.648C72.918 10.548 73.446 10.086 74.612 10.086ZM81.9268 23.264C85.1828 23.264 87.4928 20.976 87.4928 17.676C87.4928 14.376 85.1828 12.088 81.9268 12.088C78.6708 12.088 76.3608 14.376 76.3608 17.676C76.3608 20.976 78.6708 23.264 81.9268 23.264ZM81.9268 20.514C80.4968 20.514 79.4848 19.436 79.4848 17.676C79.4848 15.916 80.4968 14.86 81.9268 14.86C83.3568 14.86 84.3688 15.916 84.3688 17.676C84.3688 19.436 83.3568 20.514 81.9268 20.514ZM94.6885 23.264C97.9445 23.264 100.255 20.976 100.255 17.676C100.255 14.376 97.9445 12.088 94.6885 12.088C91.4325 12.088 89.1225 14.376 89.1225 17.676C89.1225 20.976 91.4325 23.264 94.6885 23.264ZM94.6885 20.514C93.2585 20.514 92.2465 19.436 92.2465 17.676C92.2465 15.916 93.2585 14.86 94.6885 14.86C96.1185 14.86 97.1305 15.916 97.1305 17.676C97.1305 19.436 96.1185 20.514 94.6885 20.514ZM109.782 7.6V13.562H109.694C109.188 12.726 108.088 12.088 106.658 12.088C104.018 12.088 101.906 14.288 101.906 17.676C101.906 21.064 104.018 23.264 106.658 23.264C108.066 23.264 109.298 22.648 109.848 21.702H109.914L110.046 23H112.862V7.6H109.782ZM109.782 18.314C109.782 19.546 108.792 20.492 107.45 20.492C106.064 20.492 105.03 19.458 105.03 17.676C105.03 15.894 106.064 14.86 107.45 14.86C108.792 14.86 109.782 15.806 109.782 17.038V18.314Z" fill="white"/>
</svg>
